<?xml version="1.0" encoding="UTF-8" standalone="no"?>
<svg
   xmlns:dc="http://purl.org/dc/elements/1.1/"
   xmlns:cc="http://creativecommons.org/ns#"
   xmlns:rdf="http://www.w3.org/1999/02/22-rdf-syntax-ns#"
   xmlns:svg="http://www.w3.org/2000/svg"
   xmlns="http://www.w3.org/2000/svg"
   xmlns:sodipodi="http://sodipodi.sourceforge.net/DTD/sodipodi-0.dtd"
   xmlns:inkscape="http://www.inkscape.org/namespaces/inkscape"
   sodipodi:docname="44-icon.svg"
   inkscape:version="1.0 (4035a4fb49, 2020-05-01)"
   id="svg8"
   version="1.1"
   viewBox="0 0 59.760521 45.780716"
   height="45.780716mm"
   width="59.760521mm">
  <defs
     id="defs2" />
  <sodipodi:namedview
     inkscape:window-maximized="1"
     inkscape:window-y="-8"
     inkscape:window-x="-8"
     inkscape:window-height="1017"
     inkscape:window-width="1920"
     showgrid="false"
     inkscape:document-rotation="0"
     inkscape:current-layer="layer1"
     inkscape:document-units="mm"
     inkscape:cy="56.067177"
     inkscape:cx="96.162034"
     inkscape:zoom="2.8"
     inkscape:pageshadow="2"
     inkscape:pageopacity="0.0"
     borderopacity="1.0"
     bordercolor="#666666"
     pagecolor="#ffffff"
     id="base" />
  <metadata
     id="metadata5">
    <rdf:RDF>
      <cc:Work
         rdf:about="">
        <dc:format>image/svg+xml</dc:format>
        <dc:type
           rdf:resource="http://purl.org/dc/dcmitype/StillImage" />
        <dc:title></dc:title>
      </cc:Work>
    </rdf:RDF>
  </metadata>
  <g
     transform="translate(-50.217655,-142.7347)"
     id="layer1"
     inkscape:groupmode="layer"
     inkscape:label="Слой 1">
    <path
       sodipodi:nodetypes="cccc"
       id="path833"
       d="m 79.82759,159.27883 10.947487,-9.78181 -7.579476,12.07239 C 82.232308,160.009 81.03836,159.60186 79.82759,159.27883 Z"
       style="fill:none;stroke:#000000;stroke-width:0.264583px;stroke-linecap:butt;stroke-linejoin:miter;stroke-opacity:1" />
    <path
       sodipodi:nodetypes="cccc"
       id="path835"
       d="m 86.179663,168.46787 23.761577,-0.73072 -23.385557,6.79947 c 0.818683,-2.12653 0.455978,-4.12339 -0.37602,-6.06875 z"
       style="fill:none;stroke:#000000;stroke-width:0.264583px;stroke-linecap:butt;stroke-linejoin:miter;stroke-opacity:1" />
    <path
       sodipodi:nodetypes="cccc"
       id="path837"
       d="m 85.209532,163.28059 5.528472,-3.05251 -4.838311,4.68348 c 0.208033,-0.90209 -0.217571,-1.28575 -0.690161,-1.63097 z"
       style="fill:none;stroke:#000000;stroke-width:0.264583px;stroke-linecap:butt;stroke-linejoin:miter;stroke-opacity:1" />
    <path
       sodipodi:nodetypes="cccc"
       id="path839"
       d="m 65.767857,152.74963 5.325837,4.80576 c -0.811126,0.0675 -1.295403,0.50265 -1.603618,1.13589 z"
       style="fill:none;stroke:#000000;stroke-width:0.264583px;stroke-linecap:butt;stroke-linejoin:miter;stroke-opacity:1" />
    <path
       sodipodi:nodetypes="cccc"
       id="path841"
       d="m 76.12071,142.77565 c -0.08808,1.4004 -2.120545,8.16836 -2.120545,8.16836 1.59469,-0.51731 3.16991,-0.72508 4.701546,-0.23989 z"
       style="fill:none;stroke:#000000;stroke-width:0.264583px;stroke-linecap:butt;stroke-linejoin:miter;stroke-opacity:1" />
    <path
       sodipodi:nodetypes="cccc"
       id="path843"
       d="m 50.61035,169.61396 11.123358,-1.46906 c -0.865649,1.24071 -0.95927,2.48143 -0.466885,3.72214 z"
       style="fill:none;stroke:#000000;stroke-width:0.264583px;stroke-linecap:butt;stroke-linejoin:miter;stroke-opacity:1" />
    <path
       sodipodi:nodetypes="cccc"
       id="path845"
       d="m 54.648931,151.6525 6.037275,3.65058 c -0.679488,0.0958 -1.022285,0.56202 -1.071881,1.35073 z"
       style="fill:none;stroke:#000000;stroke-width:0.264583px;stroke-linecap:butt;stroke-linejoin:miter;stroke-opacity:1" />
    <text
       id="text849"
       y="174.92792"
       x="64.879684"
       style="font-style:normal;font-weight:normal;font-size:14.1111px;line-height:1.25;font-family:sans-serif;letter-spacing:0px;word-spacing:0px;fill:#000000;fill-opacity:1;stroke:none;stroke-width:0.264583"
       xml:space="preserve"><tspan
         style="font-style:normal;font-variant:normal;font-weight:normal;font-stretch:normal;font-size:14.1111px;font-family:Unispace;-inkscape-font-specification:Unispace;stroke-width:0.264583"
         y="174.92792"
         x="64.879684"
         id="tspan847"
         sodipodi:role="line">LW</tspan></text>
    <path
       sodipodi:nodetypes="cccc"
       id="path853"
       d="m 61.338356,161.16352 c -0.92696,0.53315 -1.560893,1.31425 -1.670434,2.53906 l -6.347653,-6.08038 z"
       style="fill:none;stroke:#000000;stroke-width:0.264583px;stroke-linecap:butt;stroke-linejoin:miter;stroke-opacity:1" />
    <path
       sodipodi:nodetypes="cccc"
       id="path855"
       d="m 89.134386,157.82266 c 0.463568,0.28873 0.778141,0.66261 0.801809,1.20271 l 1.202714,-1.87089 z"
       style="fill:none;stroke:#000000;stroke-width:0.264583px;stroke-linecap:butt;stroke-linejoin:miter;stroke-opacity:1" />
    <path
       sodipodi:nodetypes="cccc"
       id="path857"
       d="m 75.417043,155.76528 c 0.362903,-0.36864 0.725807,-0.33055 1.08871,-0.0705 L 76.11232,153.7219 Z"
       style="fill:none;stroke:#000000;stroke-width:0.264583px;stroke-linecap:butt;stroke-linejoin:miter;stroke-opacity:1" />
    <path
       sodipodi:nodetypes="cccc"
       id="path859"
       d="m 62.54107,175.86335 c 0.40162,0.78952 1.068552,1.3039 2.071338,1.46998 l -4.409948,3.4745 z"
       style="fill:none;stroke:#000000;stroke-width:0.264583px;stroke-linecap:butt;stroke-linejoin:miter;stroke-opacity:1" />
    <path
       sodipodi:nodetypes="cccc"
       id="path861"
       d="m 73.031397,179.53831 c 1.142831,0.29172 2.263451,0.45758 3.274052,0 l -1.202714,5.67947 z"
       style="fill:none;stroke:#000000;stroke-width:0.264583px;stroke-linecap:butt;stroke-linejoin:miter;stroke-opacity:1" />
    <path
       sodipodi:nodetypes="cccc"
       id="path863"
       d="m 68.88872,179.93921 c 0.309509,0.32142 0.649994,0.58863 1.135896,0.60136 l -1.135896,1.00226 z"
       style="fill:none;stroke:#000000;stroke-width:0.264583px;stroke-linecap:butt;stroke-linejoin:miter;stroke-opacity:1" />
    <path
       sodipodi:nodetypes="cccc"
       id="path865"
       d="m 81.91811,177.33333 1.737251,1.67043 -0.467722,-2.27179 c -0.30795,0.43091 -0.73891,0.61579 -1.269529,0.60136 z"
       style="fill:none;stroke:#000000;stroke-width:0.264583px;stroke-linecap:butt;stroke-linejoin:miter;stroke-opacity:1" />
    <path
       sodipodi:nodetypes="cccc"
       id="path867"
       d="m 88.724671,178.60469 7.006022,6.55588 -8.48747,-3.49289 c 1.147959,-0.77844 1.549711,-1.83357 1.481448,-3.06299 z"
       style="fill:none;stroke:#000000;stroke-width:0.264583px;stroke-linecap:butt;stroke-linejoin:miter;stroke-opacity:1" />
    <path
       id="path869"
       d="m 77.975885,181.81009 3.207234,-0.73499 1.603616,6.54811 z"
       style="fill:none;stroke:#000000;stroke-width:0.264583px;stroke-linecap:butt;stroke-linejoin:miter;stroke-opacity:1" />
    <path
       sodipodi:nodetypes="cccc"
       id="path871"
       d="m 93.61115,162.90077 5.211758,0.33409 -4.543584,2.6727 c 0.727525,-0.37095 -0.158721,-3.11596 -0.668174,-3.00679 z"
       style="fill:none;stroke:#000000;stroke-width:0.264583px;stroke-linecap:butt;stroke-linejoin:miter;stroke-opacity:1" />
    <path
       sodipodi:nodetypes="cccc"
       id="path875"
       d="m 63.209243,181.67646 c 0.417532,0.63418 0.880846,1.44584 2.271789,1.40316 l -3.808589,3.34087 z"
       style="fill:none;stroke:#000000;stroke-width:0.264583px;stroke-linecap:butt;stroke-linejoin:miter;stroke-opacity:1" />
    <path
       sodipodi:nodetypes="cccc"
       id="path877"
       d="m 70.291885,183.7478 c 0.681551,0.38582 1.41287,0.59124 2.271792,0.33409 l -1.670436,3.94222 z"
       style="fill:none;stroke:#000000;stroke-width:0.264583px;stroke-linecap:butt;stroke-linejoin:miter;stroke-opacity:1" />
    <path
       sodipodi:nodetypes="cccc"
       id="path879"
       d="m 59.066564,173.52474 c -0.06442,0.91552 -0.289467,1.79759 0.734992,2.93996 l -9.287616,0.93545 z"
       style="fill:none;stroke:#000000;stroke-width:0.264583px;stroke-linecap:butt;stroke-linejoin:miter;stroke-opacity:1" />
    <path
       sodipodi:nodetypes="cccc"
       id="path909"
       d="m 54.656619,164.1369 c -0.213397,0.54821 -0.488862,1.07426 -0.100227,1.83748 l -4.309721,-0.96886 z"
       style="fill:none;stroke:#000000;stroke-width:0.264583px;stroke-linecap:butt;stroke-linejoin:miter;stroke-opacity:1" />
    <path
       sodipodi:nodetypes="cccc"
       id="path911"
       d="m 65.213764,144.99372 -1.069078,5.81311 c 1.064703,-1.07482 2.444355,-1.37977 4.075861,-1.06908 z"
       style="fill:none;stroke:#000000;stroke-width:0.264583px;stroke-linecap:butt;stroke-linejoin:miter;stroke-opacity:1" />
  </g>
</svg>
